<?xml version="1.0" encoding="iso-8859-1"?>
<!-- Generator: Adobe Illustrator 19.0.0, SVG Export Plug-In . SVG Version: 6.00 Build 0)  -->
<svg version="1.1" id="Capa_1" xmlns="http://www.w3.org/2000/svg" xmlns:xlink="http://www.w3.org/1999/xlink" x="0px" y="0px"
	 viewBox="0 0 512 512" style="enable-background:new 0 0 512 512;" xml:space="preserve">
<circle style="fill:#4A94CC;" cx="256" cy="256" r="256"/>
<path style="fill:#3183B5;" d="M20.605,256c0-137.933,109.091-250.367,245.698-255.776C120.324-5.554,0,111.121,0,256
	c0,144.871,120.314,261.554,266.302,255.776C129.696,506.366,20.605,393.933,20.605,256z"/>
<path style="fill:#3BBC56;" d="M443.067,338.932c0-8.224-6.667-14.891-14.891-14.891h-9.253c-2.759,0-5.289-1.537-6.561-3.986
	l-20.205-38.914c-5.316-10.237-15.89-16.661-27.425-16.661h-45.161c-6.734,0-13.192,2.675-17.954,7.437
	c-7.727,7.727-19.749,9.138-29.055,3.411l-40.169-24.719c-2.186-1.346-3.518-3.729-3.518-6.296v-28.565
	c0-4.083,3.31-7.393,7.393-7.393h23.273c4.702,0,5.782,2.781,13.938,13.654c3.239,4.319,9.864,3.823,12.424-0.93l32.512-60.38
	c1.29-2.394,3.79-3.888,6.51-3.888h19.117c4.083,0,7.393-3.31,7.393-7.393v-25.303c0-4.083,3.31-7.393,7.393-7.393
	c7.337,0,10.193-9.534,4.065-13.569L309.64,68.101c-10.842-7.138-23.538-10.94-36.519-10.94c-130.328,0-121.536,0.254-123.519-0.59
	l-34.174-14.534c-16.444,10.824-31.57,23.481-45.074,37.698l15.54,16.068c8.85,9.149,11.139,22.809,5.756,34.344
	c-5.85,12.535-7.478,14.361-5.721,18.293l20.721,46.374c1.19,2.663,3.834,4.378,6.75,4.378h35.081c3.471,0,6.473,2.414,7.221,5.802
	l12.75,57.868c0.538,2.439,2.27,4.441,4.606,5.325l56.981,21.542c19.136,7.234,30.196,27.282,26.111,47.327
	c-0.21,1.03-0.148,0.056-0.148,18.891c0,11.802,7.352,22.354,18.422,26.443l26.364,9.738c2.903,1.072,4.831,3.84,4.831,6.935v26.81
	c0,3.348-16.036,44.89-16.036,48.329v35.605c10.332-1.354,20.474-3.314,30.38-5.862l74.545-89.759
	c14.857-17.887,0.875-38.025,11.716-42.842l22.191-9.863C437.324,357.52,443.067,348.683,443.067,338.932L443.067,338.932z"/>
<path style="fill:#2DAD42;" d="M70.355,79.735l10.703,11.067c13.814-16.332,29.632-30.914,47.083-43.357l-12.715-5.407
	C96.995,54.171,79.824,69.405,70.355,79.735z"/>
<path style="fill:#3BBC56;" d="M406.635,49.01c-9.696,23.496,11.62,39.57,5.019,62.443c-3.739,12.955,0.503,26.896,10.825,35.572
	c12.53,10.533,7.916,8.116,61.544,20.033c4.182,0.929,8.319,1.041,12.272,0.472C478.67,119.673,447.15,78.546,406.635,49.01z"/>
<path style="fill:#2DAD42;" d="M442.012,155.004c-10.321-9.382-14.564-24.458-10.824-38.468c5.291-19.828-7.89-36.751-7.614-54.038
	c-5.451-4.725-11.098-9.231-16.938-13.488c-9.733,23.586,11.661,39.43,5.019,62.443c-3.739,12.955,0.503,26.896,10.825,35.572
	l3.884,3.265c7.13,5.993,13.605,6.978,19.613,8.313C444.781,157.523,448.168,160.6,442.012,155.004z"/>
<g>
</g>
<g>
</g>
<g>
</g>
<g>
</g>
<g>
</g>
<g>
</g>
<g>
</g>
<g>
</g>
<g>
</g>
<g>
</g>
<g>
</g>
<g>
</g>
<g>
</g>
<g>
</g>
<g>
</g>
</svg>
